<mxfile host="app.diagrams.net" modified="2024-04-18T11:29:29.777Z" agent="Mozilla/5.0 (Windows NT 10.0; Win64; x64; rv:124.0) Gecko/20100101 Firefox/124.0" etag="wkeYr7P9Tson23NYrzzf" version="24.2.5" type="device">
  <diagram name="Strona-1" id="WV5fY4qdba5NKR6JygI2">
    <mxGraphModel dx="1114" dy="561" grid="1" gridSize="10" guides="1" tooltips="1" connect="1" arrows="1" fold="1" page="1" pageScale="1" pageWidth="500" pageHeight="600" math="0" shadow="0">
      <root>
        <mxCell id="0" />
        <mxCell id="1" parent="0" />
        <mxCell id="HyQWTcew4kLPAM3iltk3-51" value="" style="rounded=0;whiteSpace=wrap;html=1;strokeColor=none;" vertex="1" parent="1">
          <mxGeometry width="500" height="600" as="geometry" />
        </mxCell>
        <mxCell id="HyQWTcew4kLPAM3iltk3-7" value="" style="ellipse;whiteSpace=wrap;html=1;" vertex="1" parent="1">
          <mxGeometry x="190" y="20" width="120" height="80" as="geometry" />
        </mxCell>
        <mxCell id="HyQWTcew4kLPAM3iltk3-8" value="&lt;font style=&quot;font-size: 16px;&quot;&gt;&lt;b&gt;Start&lt;br&gt;&lt;/b&gt;&lt;/font&gt;" style="text;html=1;align=center;verticalAlign=middle;whiteSpace=wrap;rounded=0;" vertex="1" parent="1">
          <mxGeometry x="205" y="32.5" width="90" height="55" as="geometry" />
        </mxCell>
        <mxCell id="HyQWTcew4kLPAM3iltk3-9" value="" style="rhombus;whiteSpace=wrap;html=1;" vertex="1" parent="1">
          <mxGeometry x="210" y="140" width="80" height="80" as="geometry" />
        </mxCell>
        <mxCell id="HyQWTcew4kLPAM3iltk3-10" value="" style="endArrow=classic;html=1;rounded=0;exitX=0.5;exitY=1;exitDx=0;exitDy=0;entryX=0.5;entryY=0;entryDx=0;entryDy=0;" edge="1" parent="1" source="HyQWTcew4kLPAM3iltk3-7" target="HyQWTcew4kLPAM3iltk3-9">
          <mxGeometry width="50" height="50" relative="1" as="geometry">
            <mxPoint x="180" y="350" as="sourcePoint" />
            <mxPoint x="230" y="300" as="targetPoint" />
          </mxGeometry>
        </mxCell>
        <mxCell id="HyQWTcew4kLPAM3iltk3-15" value="" style="ellipse;whiteSpace=wrap;html=1;" vertex="1" parent="1">
          <mxGeometry x="20" y="260" width="120" height="80" as="geometry" />
        </mxCell>
        <mxCell id="HyQWTcew4kLPAM3iltk3-16" value="&lt;font style=&quot;font-size: 16px;&quot;&gt;&lt;b&gt;Player choosing action&lt;br&gt;&lt;/b&gt;&lt;/font&gt;" style="text;html=1;align=center;verticalAlign=middle;whiteSpace=wrap;rounded=0;" vertex="1" parent="1">
          <mxGeometry x="35" y="272.5" width="90" height="55" as="geometry" />
        </mxCell>
        <mxCell id="HyQWTcew4kLPAM3iltk3-17" value="" style="ellipse;whiteSpace=wrap;html=1;" vertex="1" parent="1">
          <mxGeometry x="20" y="380" width="120" height="80" as="geometry" />
        </mxCell>
        <mxCell id="HyQWTcew4kLPAM3iltk3-18" value="&lt;font style=&quot;font-size: 16px;&quot;&gt;&lt;b&gt;Player choosing target&lt;br&gt;&lt;/b&gt;&lt;/font&gt;" style="text;html=1;align=center;verticalAlign=middle;whiteSpace=wrap;rounded=0;" vertex="1" parent="1">
          <mxGeometry x="35" y="392.5" width="90" height="55" as="geometry" />
        </mxCell>
        <mxCell id="HyQWTcew4kLPAM3iltk3-19" value="" style="ellipse;whiteSpace=wrap;html=1;" vertex="1" parent="1">
          <mxGeometry x="20" y="500" width="120" height="80" as="geometry" />
        </mxCell>
        <mxCell id="HyQWTcew4kLPAM3iltk3-20" value="&lt;font style=&quot;font-size: 16px;&quot;&gt;&lt;b&gt;Player performing action&lt;br&gt;&lt;/b&gt;&lt;/font&gt;" style="text;html=1;align=center;verticalAlign=middle;whiteSpace=wrap;rounded=0;" vertex="1" parent="1">
          <mxGeometry x="35" y="512.5" width="90" height="55" as="geometry" />
        </mxCell>
        <mxCell id="HyQWTcew4kLPAM3iltk3-21" value="" style="endArrow=classic;html=1;rounded=0;exitX=0.5;exitY=1;exitDx=0;exitDy=0;entryX=0.5;entryY=0;entryDx=0;entryDy=0;" edge="1" parent="1" source="HyQWTcew4kLPAM3iltk3-15" target="HyQWTcew4kLPAM3iltk3-17">
          <mxGeometry width="50" height="50" relative="1" as="geometry">
            <mxPoint x="-140" y="290" as="sourcePoint" />
            <mxPoint x="-90" y="240" as="targetPoint" />
          </mxGeometry>
        </mxCell>
        <mxCell id="HyQWTcew4kLPAM3iltk3-22" value="" style="endArrow=classic;html=1;rounded=0;exitX=0.5;exitY=1;exitDx=0;exitDy=0;entryX=0.5;entryY=0;entryDx=0;entryDy=0;" edge="1" parent="1" source="HyQWTcew4kLPAM3iltk3-17" target="HyQWTcew4kLPAM3iltk3-19">
          <mxGeometry width="50" height="50" relative="1" as="geometry">
            <mxPoint x="-170" y="480" as="sourcePoint" />
            <mxPoint x="-120" y="430" as="targetPoint" />
          </mxGeometry>
        </mxCell>
        <mxCell id="HyQWTcew4kLPAM3iltk3-23" value="" style="ellipse;whiteSpace=wrap;html=1;" vertex="1" parent="1">
          <mxGeometry x="360" y="260" width="120" height="80" as="geometry" />
        </mxCell>
        <mxCell id="HyQWTcew4kLPAM3iltk3-24" value="&lt;font style=&quot;font-size: 16px;&quot;&gt;&lt;b&gt;Enemy performing action&lt;br&gt;&lt;/b&gt;&lt;/font&gt;" style="text;html=1;align=center;verticalAlign=middle;whiteSpace=wrap;rounded=0;" vertex="1" parent="1">
          <mxGeometry x="375" y="272.5" width="90" height="55" as="geometry" />
        </mxCell>
        <mxCell id="HyQWTcew4kLPAM3iltk3-31" value="" style="endArrow=classic;html=1;rounded=0;exitX=0;exitY=0.5;exitDx=0;exitDy=0;entryX=0.5;entryY=0;entryDx=0;entryDy=0;" edge="1" parent="1" source="HyQWTcew4kLPAM3iltk3-9" target="HyQWTcew4kLPAM3iltk3-15">
          <mxGeometry width="50" height="50" relative="1" as="geometry">
            <mxPoint x="30" y="210" as="sourcePoint" />
            <mxPoint x="80" y="160" as="targetPoint" />
            <Array as="points">
              <mxPoint x="80" y="180" />
            </Array>
          </mxGeometry>
        </mxCell>
        <mxCell id="HyQWTcew4kLPAM3iltk3-32" value="" style="endArrow=classic;html=1;rounded=0;exitX=1;exitY=0.5;exitDx=0;exitDy=0;entryX=0.5;entryY=0;entryDx=0;entryDy=0;" edge="1" parent="1" source="HyQWTcew4kLPAM3iltk3-9" target="HyQWTcew4kLPAM3iltk3-23">
          <mxGeometry width="50" height="50" relative="1" as="geometry">
            <mxPoint x="370" y="220" as="sourcePoint" />
            <mxPoint x="420" y="170" as="targetPoint" />
            <Array as="points">
              <mxPoint x="420" y="180" />
            </Array>
          </mxGeometry>
        </mxCell>
        <mxCell id="HyQWTcew4kLPAM3iltk3-33" value="&lt;font style=&quot;font-size: 14px;&quot;&gt;&lt;i&gt;Player turn?&lt;/i&gt;&lt;/font&gt;" style="text;html=1;align=center;verticalAlign=middle;whiteSpace=wrap;rounded=0;" vertex="1" parent="1">
          <mxGeometry x="220" y="162.5" width="60" height="35" as="geometry" />
        </mxCell>
        <mxCell id="HyQWTcew4kLPAM3iltk3-34" value="&lt;font size=&quot;1&quot;&gt;&lt;i style=&quot;font-size: 14px;&quot;&gt;Yes&lt;/i&gt;&lt;/font&gt;" style="text;html=1;align=center;verticalAlign=middle;whiteSpace=wrap;rounded=0;" vertex="1" parent="1">
          <mxGeometry x="165" y="150" width="40" height="25" as="geometry" />
        </mxCell>
        <mxCell id="HyQWTcew4kLPAM3iltk3-36" value="&lt;font size=&quot;1&quot;&gt;&lt;i style=&quot;font-size: 14px;&quot;&gt;No&lt;/i&gt;&lt;/font&gt;" style="text;html=1;align=center;verticalAlign=middle;whiteSpace=wrap;rounded=0;" vertex="1" parent="1">
          <mxGeometry x="295" y="150" width="40" height="25" as="geometry" />
        </mxCell>
        <mxCell id="HyQWTcew4kLPAM3iltk3-39" value="" style="ellipse;whiteSpace=wrap;html=1;" vertex="1" parent="1">
          <mxGeometry x="190" y="260" width="120" height="80" as="geometry" />
        </mxCell>
        <mxCell id="HyQWTcew4kLPAM3iltk3-40" value="&lt;font style=&quot;font-size: 16px;&quot;&gt;&lt;b&gt;Set next character turn&lt;br&gt;&lt;/b&gt;&lt;/font&gt;" style="text;html=1;align=center;verticalAlign=middle;whiteSpace=wrap;rounded=0;" vertex="1" parent="1">
          <mxGeometry x="205" y="272.5" width="90" height="55" as="geometry" />
        </mxCell>
        <mxCell id="HyQWTcew4kLPAM3iltk3-41" value="" style="endArrow=classic;html=1;rounded=0;exitX=0.5;exitY=0;exitDx=0;exitDy=0;entryX=0.5;entryY=1;entryDx=0;entryDy=0;" edge="1" parent="1" source="HyQWTcew4kLPAM3iltk3-39" target="HyQWTcew4kLPAM3iltk3-9">
          <mxGeometry width="50" height="50" relative="1" as="geometry">
            <mxPoint x="330" y="250" as="sourcePoint" />
            <mxPoint x="380" y="200" as="targetPoint" />
          </mxGeometry>
        </mxCell>
        <mxCell id="HyQWTcew4kLPAM3iltk3-46" value="" style="rhombus;whiteSpace=wrap;html=1;" vertex="1" parent="1">
          <mxGeometry x="210" y="500" width="80" height="80" as="geometry" />
        </mxCell>
        <mxCell id="HyQWTcew4kLPAM3iltk3-47" value="" style="endArrow=classic;html=1;rounded=0;exitX=1;exitY=0.5;exitDx=0;exitDy=0;entryX=0;entryY=0.5;entryDx=0;entryDy=0;" edge="1" parent="1" source="HyQWTcew4kLPAM3iltk3-19" target="HyQWTcew4kLPAM3iltk3-46">
          <mxGeometry width="50" height="50" relative="1" as="geometry">
            <mxPoint x="200" y="490" as="sourcePoint" />
            <mxPoint x="250" y="440" as="targetPoint" />
          </mxGeometry>
        </mxCell>
        <mxCell id="HyQWTcew4kLPAM3iltk3-48" value="" style="endArrow=classic;html=1;rounded=0;exitX=0.5;exitY=0;exitDx=0;exitDy=0;entryX=0.5;entryY=1;entryDx=0;entryDy=0;" edge="1" parent="1" source="HyQWTcew4kLPAM3iltk3-46" target="HyQWTcew4kLPAM3iltk3-39">
          <mxGeometry width="50" height="50" relative="1" as="geometry">
            <mxPoint x="220" y="490" as="sourcePoint" />
            <mxPoint x="270" y="440" as="targetPoint" />
          </mxGeometry>
        </mxCell>
        <mxCell id="HyQWTcew4kLPAM3iltk3-49" value="" style="endArrow=classic;html=1;rounded=0;exitX=0.5;exitY=1;exitDx=0;exitDy=0;entryX=1;entryY=0.5;entryDx=0;entryDy=0;" edge="1" parent="1" source="HyQWTcew4kLPAM3iltk3-23" target="HyQWTcew4kLPAM3iltk3-46">
          <mxGeometry width="50" height="50" relative="1" as="geometry">
            <mxPoint x="380" y="520" as="sourcePoint" />
            <mxPoint x="430" y="470" as="targetPoint" />
            <Array as="points">
              <mxPoint x="420" y="540" />
            </Array>
          </mxGeometry>
        </mxCell>
        <mxCell id="HyQWTcew4kLPAM3iltk3-50" value="&lt;font style=&quot;font-size: 14px;&quot;&gt;&lt;i&gt;Join&lt;br&gt;&lt;/i&gt;&lt;/font&gt;" style="text;html=1;align=center;verticalAlign=middle;whiteSpace=wrap;rounded=0;" vertex="1" parent="1">
          <mxGeometry x="220" y="522.5" width="60" height="35" as="geometry" />
        </mxCell>
      </root>
    </mxGraphModel>
  </diagram>
</mxfile>
